<svg width="784" height="882" viewBox="0 0 784 882" fill="none" xmlns="http://www.w3.org/2000/svg">
<g opacity="0.4">
<path d="M778 635.737C768.438 633.035 761.182 629.292 756.002 626.62C750.703 623.887 747.576 622.274 746.377 624.043C743.712 628.03 753.431 644.992 767.8 653.305C771.194 655.276 774.628 656.625 778 657.516V635.737Z" fill="#805C00"/>
<path d="M778 718.367C761.512 718.667 749.047 712.613 740.684 708.551C725.109 700.983 715.854 691.086 710.021 684.848C705.939 680.484 703.534 677.912 701.811 679.182C697.981 682.027 701.412 701.266 712.138 713.938C723.026 726.793 738.404 729.131 746.474 730.358L746.646 730.384C759.644 732.326 770.302 730.26 777.604 728.797C777.725 728.773 777.857 728.747 778 728.718V718.367Z" fill="#805C00"/>
<path d="M778 755.307C765.791 767.729 752.582 779.176 738.568 789.635C737.024 789.397 734.288 789.373 730.867 789.343C724.988 789.292 717.087 789.223 709.744 788.021C688.818 784.644 676.447 772.782 668.576 765.214C656.066 753.223 650.301 740.952 646.673 733.229C644.141 727.842 642.65 724.668 640.635 725.346C636.096 726.888 633.445 746.241 639.757 761.588C646.216 777.259 660.245 784.204 667.526 787.808L667.564 787.827C679.335 793.672 690.103 795.003 697.509 795.849C701.309 796.284 716.006 797.771 733.831 792.9C733.991 792.857 734.148 792.814 734.3 792.772C705.56 813.574 673.594 830.312 640.031 842.888C638.522 842.325 636.369 841.678 633.825 840.914L633.824 840.914C628.202 839.225 620.673 836.963 613.98 833.771C594.865 824.676 586.312 809.85 580.854 800.39L580.845 800.375C572.201 785.376 570.092 771.983 568.764 763.547C567.836 757.653 567.289 754.179 565.161 754.268C560.358 754.479 552.418 772.327 554.211 788.837C555.986 805.557 567.409 816.125 573.404 821.671L573.55 821.806C583.226 830.697 593.2 834.978 600.074 837.871C603.45 839.3 616.338 844.494 633.827 845.159C627.698 847.349 621.519 849.403 615.301 851.318C587.133 859.995 558.191 865.827 529.392 868.776C528.202 867.797 525.741 866.379 522.635 864.59C517.545 861.659 510.723 857.73 504.927 853.096C488.449 839.937 483.495 823.625 480.323 813.184L480.281 813.043C475.278 796.451 476.29 782.922 476.927 774.407C477.372 768.463 477.634 764.963 475.538 764.572C470.802 763.673 459.017 779.239 456.966 795.7C454.902 812.481 463.678 825.417 468.252 832.159L468.3 832.23C475.665 843.088 484.426 849.539 490.438 853.913C493.528 856.155 505.617 864.67 523.533 869.186C523.683 869.224 523.83 869.261 523.974 869.297C489.661 872.381 455.635 871.362 423.45 866.172C423.149 865.809 422.835 865.432 422.508 865.042C422.271 864.758 422.027 864.467 421.778 864.17C418.009 859.67 412.958 853.641 409.113 847.3C398.122 829.246 399.102 812.172 399.729 801.265L399.733 801.198C400.737 783.93 406.324 771.593 409.846 763.815C412.313 758.368 413.767 755.156 411.926 754.052C407.812 751.585 391.371 762.159 383.787 776.922C376.081 791.985 379.896 807.156 381.883 815.061L381.897 815.114C385.083 827.831 391.068 836.92 395.226 843.097C397.076 845.868 403.733 855.487 415.584 864.814C392.668 860.592 370.77 854.211 350.466 845.646C342.025 842.086 333.731 838.093 325.598 833.687C325.154 832.375 324.579 830.811 323.934 829.059C321.909 823.554 319.2 816.189 317.72 808.938C313.495 788.207 320.203 772.463 324.487 762.406L324.502 762.37C331.288 746.463 340.711 736.742 346.655 730.611C350.822 726.312 353.279 723.778 351.916 722.113C348.872 718.422 329.838 722.803 317.719 734.135C305.357 745.678 303.808 761.267 303.003 769.37L302.997 769.431C301.682 782.481 304.251 793.042 306.087 800.259C306.952 803.74 310.358 816.512 319.718 830.413C291.001 813.991 264.384 792.367 240.548 766.382C240.749 764.989 240.435 761.954 240.027 758.015C239.424 752.18 238.615 744.363 238.973 736.962C240.019 715.804 250.419 702.194 257.053 693.512L257.056 693.509C267.564 679.742 279.117 672.648 286.393 668.179C291.478 665.057 294.475 663.217 293.568 661.278C291.528 656.941 272.001 656.47 257.448 664.459C242.67 672.572 237.324 687.213 234.53 694.866L234.476 695.013C229.975 707.367 229.866 718.222 229.832 725.678C229.825 729.483 229.987 744.273 236.814 761.434C237.033 761.983 237.238 762.485 237.432 762.942C216.055 739.052 196.986 711.61 180.729 681.242C180.99 680.118 181.268 678.84 181.571 677.448L181.571 677.445C182.82 671.709 184.491 664.026 187.15 657.106C194.723 637.32 208.847 627.625 217.853 621.451C232.126 611.665 245.308 608.521 253.612 606.541C259.42 605.155 262.842 604.339 262.58 602.217C262.013 597.467 243.597 590.92 227.281 593.985C210.702 597.085 201.064 609.339 196.01 615.765L195.924 615.874C187.811 626.195 184.31 636.468 181.983 643.545C180.892 646.838 177.115 658.721 177.282 674.676C161.966 644.933 149.311 612.5 139.77 577.941C138.936 574.918 138.125 571.879 137.339 568.825C137.989 567.478 138.747 565.74 139.616 563.75C141.963 558.369 145.113 551.15 149.085 544.874C160.381 526.955 176.136 520.229 186.186 515.951C202.094 509.151 215.633 508.651 224.167 508.336C230.144 508.115 233.666 507.985 233.826 505.845C234.186 501.084 217.42 491.067 200.819 490.865C183.915 490.637 172.02 500.81 165.84 506.094L165.786 506.141C155.81 514.678 150.346 524.074 146.668 530.545C144.876 533.684 138.457 545.324 135.621 561.97C127.796 529.861 122.627 496.069 120.459 461.031C121.328 459.771 122.379 458.097 123.589 456.169C126.71 451.197 130.892 444.538 135.741 438.927C149.591 422.942 166.154 418.622 176.714 415.867L176.744 415.859C193.513 411.509 206.986 413.038 215.466 414C221.389 414.672 224.876 415.068 225.349 412.991C226.431 408.333 211.344 395.926 194.959 393.241C178.213 390.503 164.907 398.838 158.031 403.152C146.889 410.096 140.091 418.588 135.505 424.425C133.29 427.219 125.32 437.603 120.034 453.381C118.472 421.577 119.377 388.782 123.003 355.319C123.836 354.523 124.768 353.608 125.784 352.609C129.976 348.493 135.602 342.966 141.631 338.618C158.739 326.248 175.806 325.853 186.718 325.601L186.831 325.598C204.163 325.229 216.922 329.829 224.956 332.726C230.567 334.749 233.873 335.941 234.822 334.029C236.941 329.726 225.114 314.165 209.78 307.789C194.176 301.298 179.385 306.277 171.651 308.881L171.557 308.912C159.115 313.107 150.553 319.786 144.731 324.423C142.036 326.571 132.438 334.399 123.873 347.706C128.052 312.986 135.164 277.576 145.488 241.833C146.835 241.046 148.989 239.312 151.688 237.14C156.264 233.457 162.406 228.514 168.826 224.793C187.142 214.17 204.195 215.491 215.086 216.335L215.125 216.338C232.379 217.679 244.612 223.513 252.318 227.189C257.708 229.759 260.883 231.274 262.016 229.458C264.554 225.403 254.317 208.755 239.708 200.886C224.869 192.892 209.669 196.36 201.713 198.175L201.573 198.207C188.783 201.149 179.587 206.953 173.317 210.98C170.111 213.053 157.811 221.214 147.129 236.241C155.384 208.535 165.575 180.641 177.831 152.723C179.228 152.075 181.576 150.463 184.54 148.427C189.379 145.104 195.862 140.652 202.539 137.421C221.571 128.237 238.465 130.853 249.259 132.524L249.346 132.538C266.46 135.189 278.212 141.937 285.615 146.187C290.792 149.159 293.841 150.91 295.11 149.186C297.948 145.333 289.008 127.953 275.03 118.99C260.856 109.889 245.405 112.198 237.351 113.402L237.228 113.42C224.227 115.388 214.627 120.462 208.082 124.013C204.766 125.787 192.23 132.786 180.576 146.547C181.986 143.413 183.423 140.278 184.886 137.143L184.897 137.118L184.909 137.092C188.32 129.413 192.148 118.549 193.872 105.116L193.873 105.113C194.169 102.78 194.387 100.498 194.535 98.2733C196.713 79.8733 193.16 65.4068 192.201 61.6634C190.318 54.3808 187.462 43.7462 180.071 32.7106L179.979 32.5737C175.364 25.7152 166.552 12.62 150.363 8.20936C134.402 3.82816 115.828 8.94966 114.961 13.7028C114.586 15.8167 117.919 16.9085 123.575 18.7606C131.666 21.4107 144.511 25.6174 158.045 36.6026L158.067 36.6211C166.604 43.5662 179.964 54.4349 186.268 74.9228C187.211 77.9806 187.969 81.1627 188.598 84.2624C188.955 90.3114 188.848 97.067 187.921 104.352C186.29 117.063 182.669 127.35 179.437 134.631C171.493 151.656 164.319 168.685 157.886 185.683C158.515 167.511 153.984 153.642 152.724 150.038C150.305 142.916 146.642 132.522 138.418 122.081L138.314 121.948C133.199 115.478 123.417 103.104 106.96 99.9103C90.7103 96.7856 72.5761 103.291 72.0698 108.096C71.8535 110.226 75.2566 111.06 81.0305 112.475C89.3057 114.502 102.451 117.722 116.791 127.662C125.808 133.904 139.992 143.735 147.843 163.701C150.588 170.688 152.378 178.433 153.714 184.218C154.474 187.505 155.087 190.159 155.646 191.681C142.868 226.366 133.165 260.9 126.292 294.968C124.43 279.816 119.603 268.916 118.195 265.841C115.05 258.962 110.399 248.996 101.188 239.435L101.146 239.391C95.4277 233.45 84.4357 222.031 67.661 220.488C51.1989 218.969 33.7825 227.255 33.7594 232.075C33.7577 234.233 37.2411 234.727 43.147 235.566C51.583 236.764 64.9619 238.664 80.1869 247.116L80.2307 247.14C89.8273 252.466 104.898 260.83 114.687 279.918C118.101 286.575 120.641 294.093 122.542 299.719C123.227 301.747 123.829 303.529 124.359 304.936C117.816 340.095 114.279 374.723 113.477 408.472C113.312 407.848 113.112 407.143 112.875 406.346C107.601 388.509 98.554 376.559 96.1831 373.517C91.534 367.566 84.7038 358.943 73.5399 351.746L73.4934 351.716C66.5667 347.257 53.2451 338.681 36.5448 341.042C20.1633 343.355 5.13389 355.448 6.24337 360.143C6.73435 362.226 10.223 361.905 16.1416 361.359C24.6216 360.577 38.0897 359.335 54.8763 364.048L54.9332 364.064C65.507 367.05 82.0771 371.73 95.999 388.038C100.875 393.74 105.092 400.49 108.24 405.529C110.635 409.362 112.412 412.206 113.388 412.843C112.813 447.078 115.053 480.389 119.823 512.409C112.17 497.687 102.787 488.556 100.201 486.078C94.7385 480.875 86.6721 473.366 74.5664 467.913L74.4251 467.85C66.8969 464.483 52.4955 458.044 36.4098 462.848C20.5402 467.587 7.49243 481.775 9.27822 486.241C10.0709 488.236 13.4745 487.399 19.253 485.977C27.5203 483.944 40.6486 480.716 57.9471 482.875C68.8596 484.243 85.9627 486.395 102.182 500.458C107.866 505.383 113.053 511.439 116.921 515.955C118.589 517.903 120.012 519.564 121.123 520.724C124.427 540.891 128.739 560.527 133.987 579.537C138.652 596.437 144.058 612.846 150.155 628.698C140.377 617.232 130.516 610.838 127.672 609.053C121.286 605.03 111.924 599.237 98.9728 596.297L98.9414 596.29C90.9369 594.447 75.4478 590.882 60.5529 598.809C45.9511 606.547 35.9268 623.023 38.5721 627.073C39.7419 628.866 42.9123 627.379 48.2931 624.854C55.9993 621.238 68.2393 615.495 85.6299 614.216H85.631C96.5877 613.417 113.79 612.162 132.456 622.755C138.985 626.472 145.255 631.391 149.932 635.061C151.427 636.234 152.759 637.279 153.885 638.117C166.677 669.498 182.213 698.577 200.082 724.814C185.211 714.437 171.194 710.738 167.501 709.829C160.199 707.995 149.478 705.399 136.259 706.635L136.095 706.65C127.874 707.42 112.153 708.892 100.528 721.002C89.0595 732.909 84.6699 751.691 88.4442 754.713C90.1157 756.062 92.6639 753.659 96.9912 749.577C103.185 743.736 113.025 734.456 129.157 727.822C139.317 723.644 155.26 717.102 176.312 721.345C183.663 722.842 191.138 725.557 196.722 727.585C199.626 728.64 202.019 729.509 203.617 729.924C223.999 758.932 247.283 784.317 272.889 805.317C257.755 800.389 245.242 800.288 241.747 800.301C234.208 800.345 223.215 800.49 210.692 804.948C202.947 807.686 187.963 812.985 179.615 827.684C171.463 842.059 171.854 861.354 176.225 863.346C178.189 864.238 180.073 861.271 183.27 856.236C187.836 849.046 195.08 837.641 209.054 827.243C217.863 820.676 231.699 810.375 253.135 809.318C260.634 808.947 268.555 809.727 274.468 810.309C276.491 810.508 278.279 810.684 279.734 810.783C301.108 827.395 324.015 841.001 348.134 851.175C354.913 854.034 361.863 856.654 368.962 859.036C351.418 858.999 338.205 863.619 334.698 864.896C328.765 867.047 320.562 870.1 312.015 876H336.388C339.923 873.608 343.915 871.401 348.442 869.514C355.394 866.626 363.125 864.68 368.888 863.229C371.918 862.467 374.405 861.841 375.947 861.287C401.263 869.12 428.353 874.007 456.324 876H515.353C539.499 874.334 563.833 870.655 587.825 864.994C582.179 868.592 577.417 872.433 573.542 876H582.968C585.138 873.479 587.266 871.162 589.107 869.158C591.318 866.75 593.116 864.792 594.076 863.472C601.786 861.537 609.456 859.397 617.067 857.052C643.355 848.955 668.986 838.409 693.225 825.448C681.342 839.027 676.131 852.48 674.803 856.054C672.933 861.082 670.48 867.768 669.138 876H684.231C683.5 867.997 683.968 858.768 687.252 848.587C689.556 841.415 693.099 834.266 695.741 828.935C697.098 826.198 698.217 823.94 698.808 822.405C727.734 806.348 754.559 786.791 778 763.79V755.307Z" fill="#805C00"/>
<path d="M778 771.51C776 776.5 774.233 783.27 773.5 788.021C772.767 792.772 772 799.986 772 804C772 812 778 827 778 825.648C778 824.296 778 771.51 778 771.51Z" fill="#805C00"/>
<path d="M778 635.737C768.438 633.035 761.182 629.292 756.002 626.62C750.703 623.887 747.576 622.274 746.377 624.043C743.712 628.03 753.431 644.992 767.8 653.305C771.194 655.276 774.628 656.625 778 657.516V635.737Z" stroke="#805C00" stroke-width="12"/>
<path d="M778 718.367C761.512 718.667 749.047 712.613 740.684 708.551C725.109 700.983 715.854 691.086 710.021 684.848C705.939 680.484 703.534 677.912 701.811 679.182C697.981 682.027 701.412 701.266 712.138 713.938C723.026 726.793 738.404 729.131 746.474 730.358L746.646 730.384C759.644 732.326 770.302 730.26 777.604 728.797C777.725 728.773 777.857 728.747 778 728.718V718.367Z" stroke="#805C00" stroke-width="12"/>
<path d="M778 755.307C765.791 767.729 752.582 779.176 738.568 789.635C737.024 789.397 734.288 789.373 730.867 789.343C724.988 789.292 717.087 789.223 709.744 788.021C688.818 784.644 676.447 772.782 668.576 765.214C656.066 753.223 650.301 740.952 646.673 733.229C644.141 727.842 642.65 724.668 640.635 725.346C636.096 726.888 633.445 746.241 639.757 761.588C646.216 777.259 660.245 784.204 667.526 787.808L667.564 787.827C679.335 793.672 690.103 795.003 697.509 795.849C701.309 796.284 716.006 797.771 733.831 792.9C733.991 792.857 734.148 792.814 734.3 792.772C705.56 813.574 673.594 830.312 640.031 842.888C638.522 842.325 636.369 841.678 633.825 840.914L633.824 840.914C628.202 839.225 620.673 836.963 613.98 833.771C594.865 824.676 586.312 809.85 580.854 800.39L580.845 800.375C572.201 785.376 570.092 771.983 568.764 763.547C567.836 757.653 567.289 754.179 565.161 754.268C560.358 754.479 552.418 772.327 554.211 788.837C555.986 805.557 567.409 816.125 573.404 821.671L573.55 821.806C583.226 830.697 593.2 834.978 600.074 837.871C603.45 839.3 616.338 844.494 633.827 845.159C627.698 847.349 621.519 849.403 615.301 851.318C587.133 859.995 558.191 865.827 529.392 868.776C528.202 867.797 525.741 866.379 522.635 864.59C517.545 861.659 510.723 857.73 504.927 853.096C488.449 839.937 483.495 823.625 480.323 813.184L480.281 813.043C475.278 796.451 476.29 782.922 476.927 774.407C477.372 768.463 477.634 764.963 475.538 764.572C470.802 763.673 459.017 779.239 456.966 795.7C454.902 812.481 463.678 825.417 468.252 832.159L468.3 832.23C475.665 843.088 484.426 849.539 490.438 853.913C493.528 856.155 505.617 864.67 523.533 869.186C523.683 869.224 523.83 869.261 523.974 869.297C489.661 872.381 455.635 871.362 423.45 866.172C423.149 865.809 422.835 865.432 422.508 865.042C422.271 864.758 422.027 864.467 421.778 864.17C418.009 859.67 412.958 853.641 409.113 847.3C398.122 829.246 399.102 812.172 399.729 801.265L399.733 801.198C400.737 783.93 406.324 771.593 409.846 763.815C412.313 758.368 413.767 755.156 411.926 754.052C407.812 751.585 391.371 762.159 383.787 776.922C376.081 791.985 379.896 807.156 381.883 815.061L381.897 815.114C385.083 827.831 391.068 836.92 395.226 843.097C397.076 845.868 403.733 855.487 415.584 864.814C392.668 860.592 370.77 854.211 350.466 845.646C342.025 842.086 333.731 838.093 325.598 833.687C325.154 832.375 324.579 830.811 323.934 829.059C321.909 823.554 319.2 816.189 317.72 808.938C313.495 788.207 320.203 772.463 324.487 762.406L324.502 762.37C331.288 746.463 340.711 736.742 346.655 730.611C350.822 726.312 353.279 723.778 351.916 722.113C348.872 718.422 329.838 722.803 317.719 734.135C305.357 745.678 303.808 761.267 303.003 769.37L302.997 769.431C301.682 782.481 304.251 793.042 306.087 800.259C306.952 803.74 310.358 816.512 319.718 830.413C291.001 813.991 264.384 792.367 240.548 766.382C240.749 764.989 240.435 761.954 240.027 758.015C239.424 752.18 238.615 744.363 238.973 736.962C240.019 715.804 250.419 702.194 257.053 693.512L257.056 693.509C267.564 679.742 279.117 672.648 286.393 668.179C291.478 665.057 294.475 663.217 293.568 661.278C291.528 656.941 272.001 656.47 257.448 664.459C242.67 672.572 237.324 687.213 234.53 694.866L234.476 695.013C229.975 707.367 229.866 718.222 229.832 725.678C229.825 729.483 229.987 744.273 236.814 761.434C237.033 761.983 237.238 762.485 237.432 762.942C216.055 739.052 196.986 711.61 180.729 681.242C180.99 680.118 181.268 678.84 181.571 677.448L181.571 677.445C182.82 671.709 184.491 664.026 187.15 657.106C194.723 637.32 208.847 627.625 217.853 621.451C232.126 611.665 245.308 608.521 253.612 606.541C259.42 605.155 262.842 604.339 262.58 602.217C262.013 597.467 243.597 590.92 227.281 593.985C210.702 597.085 201.064 609.339 196.01 615.765L195.924 615.874C187.811 626.195 184.31 636.468 181.983 643.545C180.892 646.838 177.115 658.721 177.282 674.676C161.966 644.933 149.311 612.5 139.77 577.941C138.936 574.918 138.125 571.879 137.339 568.825C137.989 567.478 138.747 565.74 139.616 563.75C141.963 558.369 145.113 551.15 149.085 544.874C160.381 526.955 176.136 520.229 186.186 515.951C202.094 509.151 215.633 508.651 224.167 508.336C230.144 508.115 233.666 507.985 233.826 505.845C234.186 501.084 217.42 491.067 200.819 490.865C183.915 490.637 172.02 500.81 165.84 506.094L165.786 506.141C155.81 514.678 150.346 524.074 146.668 530.545C144.876 533.684 138.457 545.324 135.621 561.97C127.796 529.861 122.627 496.069 120.459 461.031C121.328 459.771 122.379 458.097 123.589 456.169C126.71 451.197 130.892 444.538 135.741 438.927C149.591 422.942 166.154 418.622 176.714 415.867L176.744 415.859C193.513 411.509 206.986 413.038 215.466 414C221.389 414.672 224.876 415.068 225.349 412.991C226.431 408.333 211.344 395.926 194.959 393.241C178.213 390.503 164.907 398.838 158.031 403.152C146.889 410.096 140.091 418.588 135.505 424.425C133.29 427.219 125.32 437.603 120.034 453.381C118.472 421.577 119.377 388.782 123.003 355.319C123.836 354.523 124.768 353.608 125.784 352.609C129.976 348.493 135.602 342.966 141.631 338.618C158.739 326.248 175.806 325.853 186.718 325.601L186.831 325.598C204.163 325.229 216.922 329.829 224.956 332.726C230.567 334.749 233.873 335.941 234.822 334.029C236.941 329.726 225.114 314.165 209.78 307.789C194.176 301.298 179.385 306.277 171.651 308.881L171.557 308.912C159.115 313.107 150.553 319.786 144.731 324.423C142.036 326.571 132.438 334.399 123.873 347.706C128.052 312.986 135.164 277.576 145.488 241.833C146.835 241.046 148.989 239.312 151.688 237.14C156.264 233.457 162.406 228.514 168.826 224.793C187.142 214.17 204.195 215.491 215.086 216.335L215.125 216.338C232.379 217.679 244.612 223.513 252.318 227.189C257.708 229.759 260.883 231.274 262.016 229.458C264.554 225.403 254.317 208.755 239.708 200.886C224.869 192.892 209.669 196.36 201.713 198.175L201.573 198.207C188.783 201.149 179.587 206.953 173.317 210.98C170.111 213.053 157.811 221.214 147.129 236.241C155.384 208.535 165.575 180.641 177.831 152.723C179.228 152.075 181.576 150.463 184.54 148.427C189.379 145.104 195.862 140.652 202.539 137.421C221.571 128.237 238.465 130.853 249.259 132.524L249.346 132.538C266.46 135.189 278.212 141.937 285.615 146.187C290.792 149.159 293.841 150.91 295.11 149.186C297.948 145.333 289.008 127.953 275.03 118.99C260.856 109.889 245.405 112.198 237.351 113.402L237.228 113.42C224.227 115.388 214.627 120.462 208.082 124.013C204.766 125.787 192.23 132.786 180.576 146.547C181.986 143.413 183.423 140.278 184.886 137.143L184.897 137.118L184.909 137.092C188.32 129.413 192.148 118.549 193.872 105.116L193.873 105.113C194.169 102.78 194.387 100.498 194.535 98.2733C196.713 79.8733 193.16 65.4068 192.201 61.6634C190.318 54.3808 187.462 43.7462 180.071 32.7106L179.979 32.5737C175.364 25.7152 166.552 12.62 150.363 8.20936C134.402 3.82816 115.828 8.94966 114.961 13.7028C114.586 15.8167 117.919 16.9085 123.575 18.7606C131.666 21.4107 144.511 25.6174 158.045 36.6026L158.067 36.6211C166.604 43.5662 179.964 54.4349 186.268 74.9228C187.211 77.9806 187.969 81.1627 188.598 84.2624C188.955 90.3114 188.848 97.067 187.921 104.352C186.29 117.063 182.669 127.35 179.437 134.631C171.493 151.656 164.319 168.685 157.886 185.683C158.515 167.511 153.984 153.642 152.724 150.038C150.305 142.916 146.642 132.522 138.418 122.081L138.314 121.948C133.199 115.478 123.417 103.104 106.96 99.9103C90.7103 96.7856 72.5761 103.291 72.0698 108.096C71.8535 110.226 75.2566 111.06 81.0305 112.475C89.3057 114.502 102.451 117.722 116.791 127.662C125.808 133.904 139.992 143.735 147.843 163.701C150.588 170.688 152.378 178.433 153.714 184.218C154.474 187.505 155.087 190.159 155.646 191.681C142.868 226.366 133.165 260.9 126.292 294.968C124.43 279.816 119.603 268.916 118.195 265.841C115.05 258.962 110.399 248.996 101.188 239.435L101.146 239.391C95.4277 233.45 84.4357 222.031 67.661 220.488C51.1989 218.969 33.7825 227.255 33.7594 232.075C33.7577 234.233 37.2411 234.727 43.147 235.566C51.583 236.764 64.9619 238.664 80.1869 247.116L80.2307 247.14C89.8273 252.466 104.898 260.83 114.687 279.918C118.101 286.575 120.641 294.093 122.542 299.719C123.227 301.747 123.829 303.529 124.359 304.936C117.816 340.095 114.279 374.723 113.477 408.472C113.312 407.848 113.112 407.143 112.875 406.346C107.601 388.509 98.554 376.559 96.1831 373.517C91.534 367.566 84.7038 358.943 73.5399 351.746L73.4934 351.716C66.5667 347.257 53.2451 338.681 36.5448 341.042C20.1633 343.355 5.13389 355.448 6.24337 360.143C6.73435 362.226 10.223 361.905 16.1416 361.359C24.6216 360.577 38.0897 359.335 54.8763 364.048L54.9332 364.064C65.507 367.05 82.0771 371.73 95.999 388.038C100.875 393.74 105.092 400.49 108.24 405.529C110.635 409.362 112.412 412.206 113.388 412.843C112.813 447.078 115.053 480.389 119.823 512.409C112.17 497.687 102.787 488.556 100.201 486.078C94.7385 480.875 86.6721 473.366 74.5664 467.913L74.4251 467.85C66.8969 464.483 52.4955 458.044 36.4098 462.848C20.5402 467.587 7.49243 481.775 9.27822 486.241C10.0709 488.236 13.4745 487.399 19.253 485.977C27.5203 483.944 40.6486 480.716 57.9471 482.875C68.8596 484.243 85.9627 486.395 102.182 500.458C107.866 505.383 113.053 511.439 116.921 515.955C118.589 517.903 120.012 519.564 121.123 520.724C124.427 540.891 128.739 560.527 133.987 579.537C138.652 596.437 144.058 612.846 150.155 628.698C140.377 617.232 130.516 610.838 127.672 609.053C121.286 605.03 111.924 599.237 98.9728 596.297L98.9414 596.29C90.9369 594.447 75.4478 590.882 60.5529 598.809C45.9511 606.547 35.9268 623.023 38.5721 627.073C39.7419 628.866 42.9123 627.379 48.2931 624.854C55.9993 621.238 68.2393 615.495 85.6299 614.216H85.631C96.5877 613.417 113.79 612.162 132.456 622.755C138.985 626.472 145.255 631.391 149.932 635.061C151.427 636.234 152.759 637.279 153.885 638.117C166.677 669.498 182.213 698.577 200.082 724.814C185.211 714.437 171.194 710.738 167.501 709.829C160.199 707.995 149.478 705.399 136.259 706.635L136.095 706.65C127.874 707.42 112.153 708.892 100.528 721.002C89.0595 732.909 84.6699 751.691 88.4442 754.713C90.1157 756.062 92.6639 753.659 96.9912 749.577C103.185 743.736 113.025 734.456 129.157 727.822C139.317 723.644 155.26 717.102 176.312 721.345C183.663 722.842 191.138 725.557 196.722 727.585C199.626 728.64 202.019 729.509 203.617 729.924C223.999 758.932 247.283 784.317 272.889 805.317C257.755 800.389 245.242 800.288 241.747 800.301C234.208 800.345 223.215 800.49 210.692 804.948C202.947 807.686 187.963 812.985 179.615 827.684C171.463 842.059 171.854 861.354 176.225 863.346C178.189 864.238 180.073 861.271 183.27 856.236C187.836 849.046 195.08 837.641 209.054 827.243C217.863 820.676 231.699 810.375 253.135 809.318C260.634 808.947 268.555 809.727 274.468 810.309C276.491 810.508 278.279 810.684 279.734 810.783C301.108 827.395 324.015 841.001 348.134 851.175C354.913 854.034 361.863 856.654 368.962 859.036C351.418 858.999 338.205 863.619 334.698 864.896C328.765 867.047 320.562 870.1 312.015 876H336.388C339.923 873.608 343.915 871.401 348.442 869.514C355.394 866.626 363.125 864.68 368.888 863.229C371.918 862.467 374.405 861.841 375.947 861.287C401.263 869.12 428.353 874.007 456.324 876H515.353C539.499 874.334 563.833 870.655 587.825 864.994C582.179 868.592 577.417 872.433 573.542 876H582.968C585.138 873.479 587.266 871.162 589.107 869.158C591.318 866.75 593.116 864.792 594.076 863.472C601.786 861.537 609.456 859.397 617.067 857.052C643.355 848.955 668.986 838.409 693.225 825.448C681.342 839.027 676.131 852.48 674.803 856.054C672.933 861.082 670.48 867.768 669.138 876H684.231C683.5 867.997 683.968 858.768 687.252 848.587C689.556 841.415 693.099 834.266 695.741 828.935C697.098 826.198 698.217 823.94 698.808 822.405C727.734 806.348 754.559 786.791 778 763.79V755.307Z" stroke="#805C00" stroke-width="12"/>
<path d="M778 771.51C776 776.5 774.233 783.27 773.5 788.021C772.767 792.772 772 799.986 772 804C772 812 778 827 778 825.648C778 824.296 778 771.51 778 771.51Z" stroke="#805C00" stroke-width="12"/>
</g>
</svg>
