<svg width="298" height="843" viewBox="0 0 298 843" fill="none" xmlns="http://www.w3.org/2000/svg">
<g opacity="0.4">
<path d="M291.999 548.983C286.97 549.747 281.688 551.217 276.872 553.577C261.431 561.141 255.302 575.791 252.093 583.462L252.039 583.592C246.879 595.937 246.244 607.005 245.864 614.559C245.682 618.355 245.172 632.735 250.814 649.921C231.203 625.224 213.711 598.822 198.503 571.477C199.257 570.974 199.656 567.397 200.216 562.376C200.88 556.427 201.769 548.452 203.743 541.16C209.339 520.318 222.635 509.009 231.098 501.81L231.109 501.801C244.555 490.376 257.584 485.803 265.793 482.922C271.535 480.906 274.919 479.718 274.438 477.592C273.343 472.835 254.007 468.173 237.781 472.957C221.277 477.861 212.779 491.322 208.344 498.346L208.294 498.426C201.173 509.759 198.7 520.532 197.055 527.944C196.232 531.757 193.188 546.495 196.279 565.065C196.537 566.618 196.775 567.824 196.996 568.75C178.788 535.604 163.928 501.114 152.707 466.622C153.51 465.892 154.481 462.551 155.807 457.991C157.475 452.249 159.706 444.575 162.87 437.743C171.965 418.167 187.025 409.312 196.599 403.685C211.811 394.732 225.432 392.463 234.011 391.034C240.007 390.036 243.54 389.447 243.432 387.274C243.188 382.387 224.919 374.466 208.127 376.422C191.014 378.413 180.332 390.222 174.768 396.373L174.701 396.446C165.733 406.363 161.467 416.59 158.571 423.589C157.106 427.187 151.583 441.2 151.45 460.032C151.44 461.104 151.449 462.016 151.475 462.789C146.63 447.529 142.5 432.278 139.109 417.154C135.356 400.402 132.551 383.979 130.554 367.956C131.499 366.906 132.92 364.103 134.771 360.45C137.473 355.119 141.092 347.979 145.486 341.839C158.036 324.346 174.375 318.429 184.836 314.641L184.938 314.603C201.552 308.625 215.367 308.919 224.066 309.104C230.141 309.233 233.72 309.309 234.014 307.158C234.663 302.318 218.185 291.147 201.308 289.942C184.157 288.747 171.478 298.353 164.854 303.371L164.771 303.435C154.12 311.521 148.012 320.785 143.908 327.12C141.778 330.401 133.752 343.161 130.131 361.624C130.057 362.006 129.989 362.368 129.927 362.711C125.611 324.963 125.74 289.508 128.45 257.3C129.566 256.12 130.998 254.413 132.68 252.407C136.528 247.819 141.687 241.669 147.369 236.683C163.556 222.46 180.857 220.406 191.901 219.095L191.958 219.088C209.479 217.027 222.865 220.448 231.295 222.602C237.18 224.106 240.65 224.992 241.424 222.965C243.156 218.392 229.653 203.785 213.472 198.798C197.008 193.714 182.454 200.245 174.881 203.643L174.831 203.665C162.62 209.116 154.583 216.744 149.116 221.999C146.476 224.552 136.724 234.225 129.127 249.865C132.765 212.662 139.758 180.035 147.092 153.529C147.479 153.284 147.879 153.03 148.29 152.768C153.332 149.562 160.08 145.271 166.979 142.229C186.736 133.551 203.878 136.803 214.802 138.917C232.137 142.224 243.865 149.521 251.248 154.115C256.404 157.323 259.442 159.213 260.79 157.505C263.829 153.679 255.366 135.661 241.434 126.027C227.32 116.268 211.511 118.066 203.254 119.005L203.121 119.02C189.832 120.539 179.876 125.378 173.092 128.766C170.137 130.222 160.03 135.412 149.365 145.535C153.43 131.625 157.503 119.623 161.079 109.79L161.17 109.542L161.215 109.282C162.207 103.61 162.883 95.9871 161.853 87.0895L161.852 87.0831C161.713 85.9017 161.549 84.7445 161.363 83.6123C161.124 74.0865 159.677 67.168 159.14 64.7186C157.48 57.2403 154.935 46.2902 147.789 34.7923L147.755 34.7376C143.344 27.6262 134.834 13.9027 118.45 8.80182C102.339 3.77063 83.2234 8.33304 82.2154 13.1281C81.7429 15.2702 85.0956 16.4989 90.7922 18.5867C98.9343 21.5708 111.865 26.3097 125.258 37.979L125.366 38.0735C133.8 45.4611 146.965 56.9926 152.637 78.0111C154.631 85.4094 155.567 93.4849 156.264 99.5044L156.276 99.6042C156.117 102.739 155.766 105.555 155.349 107.991C150.785 120.558 145.424 136.616 140.296 155.637C139.847 156.376 139.761 156.784 139.876 157.001C139.887 157.022 139.9 157.041 139.915 157.059C136.095 171.369 132.419 187.325 129.314 204.707C129.249 203.708 129.096 202.376 128.832 200.617C125.968 181.884 118.481 168.571 116.513 165.153C112.678 158.506 106.975 148.845 96.699 140.046L96.6229 139.98C90.226 134.504 77.9937 124.033 60.8539 124.086C43.9984 124.159 27.1593 134.256 27.618 139.143C27.8167 141.328 31.3834 141.49 37.4424 141.765C46.1057 142.157 59.8644 142.781 76.1583 149.88L76.2181 149.906C86.4716 154.381 102.55 161.398 114.326 179.786C118.446 186.229 121.767 193.626 124.246 199.148C126.451 204.059 127.99 207.487 128.833 207.44C123.346 239.036 119.787 275.228 120.661 314.736C120.366 313.784 119.913 312.536 119.259 310.909C112.231 293.285 101.936 282.03 99.2488 279.164C93.9879 273.564 86.2596 265.446 74.2319 259.192L74.1841 259.167C66.7701 255.292 52.4483 247.807 35.7377 251.776C19.3439 255.666 5.20241 269.321 6.75108 273.966C7.45301 276.049 10.9736 275.397 16.9437 274.29C25.4744 272.709 39.0063 270.2 56.4621 273.423L56.4915 273.428C67.5058 275.468 84.7763 278.665 100.43 293.901C105.92 299.258 110.838 305.724 114.505 310.543C117.632 314.654 119.848 317.568 120.731 317.573C121.559 347.818 124.999 379.972 132.16 413.469C131.921 413.078 131.658 412.658 131.37 412.206C121.189 396.217 109.006 387.06 105.808 384.721C99.6057 380.183 90.5066 373.66 77.5281 369.727L77.3748 369.681C69.3293 367.259 53.95 362.629 38.315 369.575C22.9266 376.452 11.5678 392.495 13.9612 396.771C15.0292 398.687 18.369 397.394 24.034 395.201C32.1276 392.069 44.9674 387.099 62.7091 387.026C73.9231 386.956 91.4775 386.898 109.71 398.999C116.106 403.239 122.141 408.689 126.636 412.748L126.637 412.749C129.616 415.439 131.919 417.518 133.201 418.228L133.254 418.466C140.714 451.741 151.731 485.66 166.051 518.991C153.983 506.589 141.758 500.35 138.41 498.712C131.525 495.305 121.439 490.417 107.982 488.768L107.845 488.751C99.5102 487.747 83.5514 485.825 69.3359 495.348C55.3447 504.741 46.8963 522.499 50.0025 526.304C51.3813 528.01 54.4414 526.167 59.6358 523.04C67.0654 518.566 78.8613 511.464 96.349 508.355C107.386 506.377 124.678 503.308 144.682 512.084C151.721 515.167 158.602 519.502 163.728 522.732L163.729 522.732C165.878 524.086 167.718 525.245 169.131 526.036C182.428 555.932 198.383 585.282 216.809 613.19C216.689 613.094 216.566 612.997 216.44 612.897C201.518 601.208 186.961 596.622 183.18 595.497C175.814 593.279 165.037 590.139 151.529 590.775L151.418 590.781C143.03 591.162 126.922 591.893 114.502 603.694C102.256 615.277 96.8956 634.17 100.589 637.429C102.22 638.872 104.925 636.551 109.516 632.612C116.1 626.963 126.563 617.987 143.298 612.009C153.836 608.229 170.399 602.318 191.584 607.647C199.023 609.519 206.528 612.643 212.12 614.971L212.121 614.971C215.682 616.453 218.467 617.613 219.965 617.92C240.581 648.493 264.186 677.252 290.534 702.999C290.141 702.812 289.715 702.614 289.255 702.406C271.987 694.532 256.778 693.476 252.825 693.276C245.151 692.846 233.951 692.324 220.951 696.097L220.888 696.116C212.835 698.453 197.341 702.952 187.988 717.344C178.807 731.486 178.041 751.116 182.379 753.413C184.313 754.431 186.401 751.535 189.945 746.621C195.02 739.585 203.079 728.411 217.942 718.661C227.309 712.523 241.994 702.905 263.867 703.116C271.51 703.19 279.515 704.465 285.491 705.418C288.121 705.837 290.358 706.193 291.999 706.357V696.012C278.955 683.07 266.598 669.375 254.962 655.08C255.009 653.43 254.87 650.969 254.703 648.007C254.365 642.031 253.912 634.013 254.64 626.483C256.688 605.02 267.925 591.654 275.077 583.148L275.084 583.139C280.758 576.394 286.612 571.352 291.999 567.47V548.983Z" fill="#008024"/>
<path d="M291.999 806.098V776.987C284.704 781.568 275.917 788.788 271.449 800.479C265.418 816.222 268.733 835.592 273.477 836.934C275.579 837.525 277.018 834.258 279.458 828.717C281.971 823.012 285.545 814.896 291.999 806.098Z" fill="#008024"/>
<path d="M291.999 548.983C286.97 549.747 281.688 551.217 276.872 553.577C261.431 561.141 255.302 575.791 252.093 583.462L252.039 583.592C246.879 595.937 246.244 607.005 245.864 614.559C245.682 618.355 245.172 632.735 250.814 649.921C231.203 625.224 213.711 598.822 198.503 571.477C199.257 570.974 199.656 567.397 200.216 562.376C200.88 556.427 201.769 548.452 203.743 541.16C209.339 520.318 222.635 509.009 231.098 501.81L231.109 501.801C244.555 490.376 257.584 485.803 265.793 482.922C271.535 480.906 274.919 479.718 274.438 477.592C273.343 472.835 254.007 468.173 237.781 472.957C221.277 477.861 212.779 491.322 208.344 498.346L208.294 498.426C201.173 509.759 198.7 520.532 197.055 527.944C196.232 531.757 193.188 546.495 196.279 565.065C196.537 566.618 196.775 567.824 196.996 568.75C178.788 535.604 163.928 501.114 152.707 466.622C153.51 465.892 154.481 462.551 155.807 457.991C157.475 452.249 159.706 444.575 162.87 437.743C171.965 418.167 187.025 409.312 196.599 403.685C211.811 394.732 225.432 392.463 234.011 391.034C240.007 390.036 243.54 389.447 243.432 387.274C243.188 382.387 224.919 374.466 208.127 376.422C191.014 378.413 180.332 390.222 174.768 396.373L174.701 396.446C165.733 406.363 161.467 416.59 158.571 423.589C157.106 427.187 151.583 441.2 151.45 460.032C151.44 461.104 151.449 462.016 151.475 462.789C146.63 447.529 142.5 432.278 139.109 417.154C135.356 400.402 132.551 383.979 130.554 367.956C131.499 366.906 132.92 364.103 134.771 360.45C137.473 355.119 141.092 347.979 145.486 341.839C158.036 324.346 174.375 318.429 184.836 314.641L184.938 314.603C201.552 308.625 215.367 308.919 224.066 309.104C230.141 309.233 233.72 309.309 234.014 307.158C234.663 302.318 218.185 291.147 201.308 289.942C184.157 288.747 171.478 298.353 164.854 303.371L164.771 303.435C154.12 311.521 148.012 320.785 143.908 327.12C141.778 330.401 133.752 343.161 130.131 361.624C130.057 362.006 129.989 362.368 129.927 362.711C125.611 324.963 125.74 289.508 128.45 257.3C129.566 256.12 130.998 254.413 132.68 252.407C136.528 247.819 141.687 241.669 147.369 236.683C163.556 222.46 180.857 220.406 191.901 219.095L191.958 219.088C209.479 217.027 222.865 220.448 231.295 222.602C237.18 224.106 240.65 224.992 241.424 222.965C243.156 218.392 229.653 203.785 213.472 198.798C197.008 193.714 182.454 200.245 174.881 203.643L174.831 203.665C162.62 209.116 154.583 216.744 149.116 221.999C146.476 224.552 136.724 234.225 129.127 249.865C132.765 212.662 139.758 180.035 147.092 153.529C147.479 153.284 147.879 153.03 148.29 152.768C153.332 149.562 160.08 145.271 166.979 142.229C186.736 133.551 203.878 136.803 214.802 138.917C232.137 142.224 243.865 149.521 251.248 154.115C256.404 157.323 259.442 159.213 260.79 157.505C263.829 153.679 255.366 135.661 241.434 126.027C227.32 116.268 211.511 118.066 203.254 119.005L203.121 119.02C189.832 120.539 179.876 125.378 173.092 128.766C170.137 130.222 160.03 135.412 149.365 145.535C153.43 131.625 157.503 119.623 161.079 109.79L161.17 109.542L161.215 109.282C162.207 103.61 162.883 95.9871 161.853 87.0895L161.852 87.0831C161.713 85.9017 161.549 84.7445 161.363 83.6123C161.124 74.0865 159.677 67.168 159.14 64.7186C157.48 57.2403 154.935 46.2902 147.789 34.7923L147.755 34.7376C143.344 27.6262 134.834 13.9027 118.45 8.80182C102.339 3.77063 83.2234 8.33304 82.2154 13.1281C81.7429 15.2702 85.0956 16.4989 90.7922 18.5867C98.9343 21.5708 111.865 26.3097 125.258 37.979L125.366 38.0735C133.8 45.4611 146.965 56.9926 152.637 78.0111C154.631 85.4094 155.567 93.4849 156.264 99.5044L156.276 99.6042C156.117 102.739 155.766 105.555 155.349 107.991C150.785 120.558 145.424 136.616 140.296 155.637C139.847 156.376 139.761 156.784 139.876 157.001C139.887 157.022 139.9 157.041 139.915 157.059C136.095 171.369 132.419 187.325 129.314 204.707C129.249 203.708 129.096 202.376 128.832 200.617C125.968 181.884 118.481 168.571 116.513 165.153C112.678 158.506 106.975 148.845 96.699 140.046L96.6229 139.98C90.226 134.504 77.9937 124.033 60.8539 124.086C43.9984 124.159 27.1593 134.256 27.618 139.143C27.8167 141.328 31.3834 141.49 37.4424 141.765C46.1057 142.157 59.8644 142.781 76.1583 149.88L76.2181 149.906C86.4716 154.381 102.55 161.398 114.326 179.786C118.446 186.229 121.767 193.626 124.246 199.148C126.451 204.059 127.99 207.487 128.833 207.44C123.346 239.036 119.787 275.228 120.661 314.736C120.366 313.784 119.913 312.536 119.259 310.909C112.231 293.285 101.936 282.03 99.2488 279.164C93.9879 273.564 86.2596 265.446 74.2319 259.192L74.1841 259.167C66.7701 255.292 52.4483 247.807 35.7377 251.776C19.3439 255.666 5.20241 269.321 6.75108 273.966C7.45301 276.049 10.9736 275.397 16.9437 274.29C25.4744 272.709 39.0063 270.2 56.4621 273.423L56.4915 273.428C67.5058 275.468 84.7763 278.665 100.43 293.901C105.92 299.258 110.838 305.724 114.505 310.543C117.632 314.654 119.848 317.568 120.731 317.573C121.559 347.818 124.999 379.972 132.16 413.469C131.921 413.078 131.658 412.658 131.37 412.206C121.189 396.217 109.006 387.06 105.808 384.721C99.6057 380.183 90.5066 373.66 77.5281 369.727L77.3748 369.681C69.3293 367.259 53.95 362.629 38.315 369.575C22.9266 376.452 11.5678 392.495 13.9612 396.771C15.0292 398.687 18.369 397.394 24.034 395.201C32.1276 392.069 44.9674 387.099 62.7091 387.026C73.9231 386.956 91.4775 386.898 109.71 398.999C116.106 403.239 122.141 408.689 126.636 412.748L126.637 412.749C129.616 415.439 131.919 417.518 133.201 418.228L133.254 418.466C140.714 451.741 151.731 485.66 166.051 518.991C153.983 506.589 141.758 500.35 138.41 498.712C131.525 495.305 121.439 490.417 107.982 488.768L107.845 488.751C99.5102 487.747 83.5514 485.825 69.3359 495.348C55.3447 504.741 46.8963 522.499 50.0025 526.304C51.3813 528.01 54.4414 526.167 59.6358 523.04C67.0654 518.566 78.8613 511.464 96.349 508.355C107.386 506.377 124.678 503.308 144.682 512.084C151.721 515.167 158.602 519.502 163.728 522.732L163.729 522.732C165.878 524.086 167.718 525.245 169.131 526.036C182.428 555.932 198.383 585.282 216.809 613.19C216.689 613.094 216.566 612.997 216.44 612.897C201.518 601.208 186.961 596.622 183.18 595.497C175.814 593.279 165.037 590.139 151.529 590.775L151.418 590.781C143.03 591.162 126.922 591.893 114.502 603.694C102.256 615.277 96.8956 634.17 100.589 637.429C102.22 638.872 104.925 636.551 109.516 632.612C116.1 626.963 126.563 617.987 143.298 612.009C153.836 608.229 170.399 602.318 191.584 607.647C199.023 609.519 206.528 612.643 212.12 614.971L212.121 614.971C215.682 616.453 218.467 617.613 219.965 617.92C240.581 648.493 264.186 677.252 290.534 702.999C290.141 702.812 289.715 702.614 289.255 702.406C271.987 694.532 256.778 693.476 252.825 693.276C245.151 692.846 233.951 692.324 220.951 696.097L220.888 696.116C212.835 698.453 197.341 702.952 187.988 717.344C178.807 731.486 178.041 751.116 182.379 753.413C184.313 754.431 186.401 751.535 189.945 746.621C195.02 739.585 203.079 728.411 217.942 718.661C227.309 712.523 241.994 702.905 263.867 703.116C271.51 703.19 279.515 704.465 285.491 705.418C288.121 705.837 290.358 706.193 291.999 706.357V696.012C278.955 683.07 266.598 669.375 254.962 655.08C255.009 653.43 254.87 650.969 254.703 648.007C254.365 642.031 253.912 634.013 254.64 626.483C256.688 605.02 267.925 591.654 275.077 583.148L275.084 583.139C280.758 576.394 286.612 571.352 291.999 567.47V548.983Z" stroke="#008024" stroke-width="12"/>
<path d="M291.999 806.098V776.987C284.704 781.568 275.917 788.788 271.449 800.479C265.418 816.222 268.733 835.592 273.477 836.934C275.579 837.525 277.018 834.258 279.458 828.717C281.971 823.012 285.545 814.896 291.999 806.098Z" stroke="#008024" stroke-width="12"/>
</g>
</svg>
