<svg width="746" height="930" viewBox="0 0 746 930" fill="none" xmlns="http://www.w3.org/2000/svg">
<g opacity="0.5">
<path d="M6 837.841C8.87943 836.144 11.6723 834.128 14.1712 831.799C26.3126 820.499 27.9835 804.982 28.8406 796.959C30.2801 783.995 27.8995 773.465 26.2295 766.262C25.387 762.627 22.0184 748.944 12.2199 734.28C34.1625 749.907 57.7561 763.365 82.2935 774.528C89.431 777.776 96.6509 780.83 103.936 783.688C104.717 785.094 106.201 787.196 108.019 789.771L108.02 789.772C111.384 794.538 115.894 800.926 119.213 807.523C128.691 826.316 126.63 843.094 125.312 853.814L125.309 853.84C123.205 870.817 116.967 882.533 113.037 889.913C110.288 895.075 108.669 898.116 110.384 899.351C114.216 902.123 130.873 893.104 139.177 879.168C147.669 864.932 144.947 849.569 143.523 841.627C141.272 828.773 136.062 819.312 132.411 812.871C130.586 809.62 123.5 797.363 109.918 785.986C143.877 798.75 179.139 807.273 213.987 811.231C214.906 812.408 217.06 814.321 219.803 816.758L219.805 816.759C224.168 820.634 230.023 825.833 234.773 831.503C248.291 847.642 250.107 864.49 251.253 875.21C253.079 892.231 249.687 905.053 247.55 913.13C246.057 918.775 245.177 922.101 247.122 922.92C251.482 924.749 265.638 912.183 270.547 896.709C275.573 880.911 269.41 866.594 266.218 859.178L266.215 859.17C261.091 847.174 253.852 839.137 248.857 833.686C246.29 830.902 236.219 820.184 219.809 812.148C219.538 812.016 219.279 811.891 219.03 811.772C252.533 815.157 285.575 814.295 316.624 808.897C318.063 809.623 320.37 810.531 323.17 811.632C328.599 813.768 335.883 816.633 342.289 820.317C360.503 830.821 367.992 845.979 372.776 855.663L372.793 855.696C380.358 871.052 381.577 884.268 382.344 892.592C382.881 898.406 383.197 901.833 385.301 901.936C390.025 902.147 399 885.471 398.299 869.255C397.597 852.771 386.974 841.489 381.408 835.576L381.316 835.479C372.376 825.975 362.82 820.932 356.25 817.545C353.007 815.867 340.793 809.747 323.797 807.562C330.954 806.141 337.996 804.473 344.905 802.553C369.695 795.666 393.733 785.277 416.652 771.763C418.063 771.845 419.79 771.897 421.738 771.956H421.74C427.57 772.131 435.379 772.366 442.634 773.668C463.372 777.387 475.55 789.152 483.303 796.651C495.604 808.528 501.225 820.541 504.768 828.114C507.249 833.417 508.712 836.543 510.736 835.921C515.241 834.53 518.043 815.793 511.909 800.774C505.626 785.416 491.702 778.377 484.505 774.739C472.872 768.827 462.188 767.307 454.853 766.318C451.463 765.868 439.335 764.404 424.052 767.266C451.594 750.032 477.427 728.243 500.892 702.571C502.499 702.36 504.903 701.822 507.81 701.171L507.814 701.17C513.505 699.896 521.123 698.191 528.469 697.656C549.497 696.166 564.198 704.536 573.566 709.879C588.44 718.362 596.856 728.631 602.153 735.096C605.854 739.612 608.034 742.272 609.83 741.168C613.884 738.7 611.967 719.863 602.295 706.831C592.496 693.582 577.375 690.176 569.468 688.395L569.31 688.36C556.595 685.498 545.831 686.68 538.492 687.55C534.793 687.97 520.753 689.803 505.028 697.979C525.701 674.679 544.46 648.323 560.839 619.386C562.021 618.72 563.417 617.889 564.978 616.959C569.993 613.973 576.714 609.971 583.537 607.171C603.04 599.2 619.63 602.579 630.198 604.732L630.199 604.732C646.97 608.16 658.167 615.287 665.216 619.774C670.138 622.908 673.038 624.754 674.402 623.154C677.486 619.543 669.793 602.244 656.548 592.879C643.041 583.292 627.513 584.819 619.488 585.609L619.457 585.612C606.479 586.849 596.637 591.315 589.914 594.43C586.933 595.806 576.597 600.762 565.683 610.625C573.58 595.996 580.879 580.743 587.521 564.922C595.026 547.047 601.697 528.442 607.45 509.192C608.666 508.205 610.232 506.791 612.061 505.139L612.063 505.138C616.395 501.227 622.206 495.981 628.358 491.899C645.914 480.242 662.835 480.293 673.632 480.33C690.744 480.399 703.121 485.19 710.915 488.206C716.363 490.315 719.572 491.557 720.594 489.714C722.893 485.59 711.97 470.14 697.114 463.534C682.055 456.839 667.226 461.302 659.474 463.634L659.328 463.678C646.858 467.468 638.062 473.768 632.091 478.148C629.272 480.228 619.053 487.894 609.78 501.183C618.424 470.638 624.771 438.524 628.5 405.16C629.55 404.597 631.61 402.083 634.371 398.715C638.068 394.204 643.021 388.161 648.483 383.222C664.084 369.091 680.804 366.614 691.474 365.033L691.531 365.024C708.466 362.543 721.423 365.442 729.581 367.267C735.275 368.541 738.631 369.292 739.371 367.325C741.04 362.894 727.925 349.233 712.266 344.926C696.302 340.532 682.256 347.21 674.953 350.682L674.904 350.706C663.131 356.311 655.399 363.851 650.126 369.061C647.436 371.725 637.129 382.225 629.756 398.93C629.458 399.599 629.2 400.201 628.977 400.741C632.418 367.809 633.311 333.681 631.349 298.66C632.03 297.372 632.822 295.749 633.72 293.908L633.723 293.903C636.28 288.664 639.696 281.663 643.855 275.61C655.781 258.254 671.503 252.002 681.515 248.02L681.561 248.002C697.444 241.684 710.708 241.513 719.072 241.405C724.927 241.33 728.381 241.285 728.65 239.184C729.232 234.488 713.315 224.236 697.097 223.649C680.571 223.046 668.437 232.785 662.124 237.851L662.078 237.889C651.91 246.042 646.131 255.161 642.206 261.464C640.456 264.271 634.429 274.211 630.711 288.637C628.288 254.635 623.172 219.826 615.088 184.486C615.817 183.061 616.734 180.589 617.865 177.539C619.893 172.074 622.607 164.757 626.156 158.3C636.305 139.846 651.349 132.054 660.911 127.108C676.12 119.23 689.322 117.744 697.633 116.808C703.432 116.156 706.85 115.771 706.907 113.67C707.017 108.928 690.178 100.319 673.964 101.322C657.541 102.366 646.465 113.187 640.673 118.844L640.555 118.96C631.238 128.094 626.368 137.754 623.118 144.385C621.445 147.725 615.327 160.587 613.637 178.271C609.514 160.966 604.679 143.538 599.098 126.019C596.865 118.527 594.631 108.063 594.638 95.4883C594.65 88.1249 595.426 81.4071 596.572 75.4709C597.542 72.6513 598.638 69.781 599.885 67.0429C608.593 47.8868 622.964 38.9811 632.147 33.2905L632.172 33.2752C646.726 24.278 659.76 21.794 667.971 20.2292C673.709 19.1355 677.092 18.4908 676.992 16.3857C676.744 11.6491 659.302 4.33219 643.213 6.59511C626.898 8.85807 616.676 20.502 611.322 26.6005L611.215 26.7222C602.635 36.5392 598.519 46.5348 595.772 53.3889C594.397 56.8431 589.303 70.0129 588.923 87.6586C588.743 90.1807 588.642 92.7904 588.638 95.4818V95.485C588.631 108.787 590.996 119.85 593.355 127.758L593.363 127.785L593.372 127.811C594.383 130.986 595.37 134.158 596.332 137.326C586.735 122.569 575.481 114.236 572.487 112.1C566.56 107.822 557.85 101.678 545.439 98.1303L545.322 98.097C537.632 95.9146 522.878 91.7275 507.936 98.8102C493.202 105.782 482.317 121.582 484.597 125.689C485.616 127.528 488.805 126.205 494.217 123.961C501.958 120.752 514.247 115.656 531.242 115.223L531.328 115.22C542.047 114.948 558.824 114.521 576.201 125.85C582.296 129.834 588.049 134.982 592.344 138.824C594.927 141.136 596.983 142.975 598.267 143.804C606.689 172.487 613.108 200.889 617.67 228.865C609.166 212.985 598.275 203.548 595.422 201.134C589.823 196.428 581.598 189.623 569.515 185.153L569.383 185.105C561.864 182.339 547.5 177.055 532.05 182.976C516.839 188.805 504.783 203.729 506.746 207.996C507.62 209.905 510.902 208.829 516.472 207.003C524.436 204.391 537.078 200.246 554.046 201.105L554.084 201.107C564.793 201.652 581.562 202.506 598.061 215.146C603.845 219.575 609.204 225.158 613.198 229.318C615.513 231.729 617.369 233.663 618.583 234.616C624.149 270.689 626.633 306.036 626.352 340.344C619.691 326.379 611.367 317.594 609.02 315.171C603.934 309.925 596.435 302.348 584.847 296.703L584.76 296.661C577.557 293.156 563.781 286.452 547.774 290.813C532.045 295.098 518.578 308.764 520.101 313.219C520.785 315.2 524.153 314.455 529.87 313.189C538.055 311.376 551.055 308.498 567.883 311.032L567.993 311.049C578.585 312.664 595.152 315.19 610.257 329.38C615.581 334.37 620.365 340.457 623.929 344.991C624.772 346.063 625.547 347.048 626.244 347.912C625.58 380.918 622.355 412.933 616.854 443.677C613.678 427.732 607.255 416.681 605.454 413.692C601.722 407.433 596.169 398.312 586.192 390.153C580.039 385.091 568.129 375.306 551.482 375.87C535.192 376.429 518.947 386.616 519.416 391.286C519.616 393.368 523.061 393.42 528.912 393.509C537.289 393.636 550.598 393.838 566.378 400.177L566.406 400.188C576.342 404.196 591.926 410.481 603.405 427.781C607.422 433.852 610.658 440.861 613.073 446.093L613.074 446.096C613.992 448.084 614.791 449.815 615.47 451.141C608.971 484.96 599.71 517.192 588.077 547.455C587.384 530.963 582.618 518.882 581.271 515.61C578.501 508.849 574.36 499.015 565.719 489.452L565.672 489.4C560.319 483.479 550.014 472.082 533.527 470.183C517.339 468.296 499.758 475.946 499.511 480.626C499.399 482.73 502.812 483.298 508.603 484.263C516.873 485.641 529.992 487.827 544.626 496.443C553.875 501.869 568.37 510.394 577.119 529.258C580.199 535.867 582.36 543.29 583.97 548.824C584.555 550.831 585.066 552.589 585.523 553.97C584.367 556.865 583.189 559.742 581.989 562.599C568.38 595.011 552.012 624.967 533.396 651.976C535.532 636.522 533.356 624.531 532.709 621.197C531.331 614.015 529.212 603.574 522.608 592.508L522.538 592.39C518.423 585.499 510.577 572.36 494.825 567.261C479.324 562.231 460.573 566.294 459.424 570.847C458.903 572.88 462.132 574.104 467.613 576.182C475.45 579.152 487.889 583.867 500.558 595.186C508.552 602.326 521.086 613.538 525.977 633.752C527.697 640.824 528.36 648.513 528.856 654.255C528.973 655.615 529.081 656.866 529.191 657.974C509.58 685.472 487.602 709.775 463.827 730.341C464.048 729.959 464.283 729.545 464.532 729.095C473.332 713.244 475.346 698.864 475.816 695.159C476.719 687.896 477.975 677.313 475.143 664.721L475.109 664.571C473.349 656.769 469.981 641.843 456.611 632.091C443.444 622.486 424.374 620.495 421.844 624.461C420.717 626.235 423.404 628.403 427.963 632.081C434.486 637.344 444.844 645.701 453.348 660.423L453.35 660.426C458.72 669.712 467.137 684.267 465.501 704.999C464.922 712.248 463.153 719.758 461.833 725.362L461.833 725.364C460.957 729.083 460.279 731.964 460.276 733.373C433.833 755.667 405.233 773.372 375.243 785.759C386.043 773.432 390.94 761.476 392.216 758.204C394.909 751.408 398.735 741.448 399.093 728.577L399.094 728.517C399.327 720.528 399.776 705.155 389.188 692.365C378.811 679.812 360.828 673.158 357.402 676.37C355.866 677.82 357.94 680.595 361.458 685.303C366.475 692.018 374.43 702.665 379.041 719.004L379.051 719.041C381.961 729.369 386.516 745.541 379.801 765.194C377.45 772.068 373.888 778.899 371.226 784.004L371.223 784.011C370.393 785.602 369.652 787.025 369.061 788.229C360.574 791.507 351.981 794.36 343.299 796.772C322.492 802.553 300.41 806.015 277.61 807.256C290.258 799.677 297.911 791.185 300.054 788.727C304.878 783.234 311.845 775.136 316.543 763.155L316.562 763.105C319.49 755.657 325.107 741.366 319.495 725.733C313.963 710.408 299.283 698.05 294.968 699.936C293.037 700.78 294.05 704.09 295.768 709.703C298.221 717.718 302.112 730.429 300.924 747.368L300.919 747.434C300.16 758.132 298.973 774.878 286.007 791.076C281.468 796.767 275.793 802.004 271.558 805.912C270.916 806.505 270.308 807.066 269.741 807.595C237.789 808.614 204.569 805.349 171.583 798.061C171.674 798.05 171.766 798.039 171.86 798.028C189.869 795.879 202.708 789.105 205.997 787.31C212.4 783.807 221.739 778.625 230.272 768.978L230.328 768.914C235.627 762.924 245.795 751.431 245.891 734.834C245.959 718.55 236.438 701.916 231.714 702.197C229.625 702.315 229.441 705.755 229.128 711.598C228.679 719.968 227.967 733.267 221.015 748.793L220.956 748.925C216.558 758.693 209.688 773.953 191.994 784.697C185.769 788.481 178.635 791.451 173.311 793.666C170.117 794.995 167.576 796.053 166.272 796.853C138.59 790.369 111.129 781.055 84.7782 769.067C79.0068 766.441 73.2904 763.688 67.6383 760.809C84.6775 762.323 97.8115 758.9 101.268 757.936C108.323 755.981 118.572 753.065 129.107 745.622L129.266 745.509C135.799 740.862 148.247 732.006 152.073 715.95C155.89 700.1 150.4 681.728 145.75 680.919C143.689 680.566 142.72 683.879 141.077 689.501C138.725 697.548 134.992 710.323 124.694 723.842L124.684 723.855C118.183 732.381 107.994 745.742 88.2429 752.199C81.3258 754.467 73.7121 755.724 68.0265 756.663C65.499 757.08 63.3525 757.435 61.8177 757.787C42.2604 747.442 23.5239 735.575 6 722.258V729.759C6.36611 730.031 6.7327 730.302 7.09979 730.572C7.49052 732.139 8.28553 734.445 9.24598 737.231C11.1493 742.752 13.7024 750.158 15.0461 757.43C18.8956 778.139 12.1987 793.693 7.93301 803.595C7.30845 805.046 6.66255 806.445 6 807.793V837.841Z" fill="#5F8000"/>
<path d="M6 601.033V624.689C6.57645 624.219 7.1474 623.727 7.71184 623.212C19.744 612.219 25.4991 593.919 22.127 590.668C20.6092 589.216 17.9441 591.419 13.4231 595.155C11.3584 596.862 8.90642 598.888 6 601.033Z" fill="#5F8000"/>
<path d="M6 695.265V704.519C8.64153 704.738 10.6004 704.781 11.6764 704.797C18.9932 704.902 29.6446 704.957 41.8382 700.743L41.8769 700.73C49.4185 698.134 63.9487 693.133 72.2034 678.686C80.2742 664.536 80.1222 645.361 75.8965 643.291C74.0191 642.377 72.169 645.28 69.0287 650.208C64.5273 657.272 57.3747 668.495 43.6905 678.6C35.8251 684.427 23.8568 693.269 6 695.265Z" fill="#5F8000"/>
<path d="M6 837.841C8.87943 836.144 11.6723 834.128 14.1712 831.799C26.3126 820.499 27.9835 804.982 28.8406 796.959C30.2801 783.995 27.8995 773.465 26.2295 766.262C25.387 762.627 22.0184 748.944 12.2199 734.28C34.1625 749.907 57.7561 763.365 82.2935 774.528C89.431 777.776 96.6509 780.83 103.936 783.688C104.717 785.094 106.201 787.196 108.019 789.771L108.02 789.772C111.384 794.538 115.894 800.926 119.213 807.523C128.691 826.316 126.63 843.094 125.312 853.814L125.309 853.84C123.205 870.817 116.967 882.533 113.037 889.913C110.288 895.075 108.669 898.116 110.384 899.351C114.216 902.123 130.873 893.104 139.177 879.168C147.669 864.932 144.947 849.569 143.523 841.627C141.272 828.773 136.062 819.312 132.411 812.871C130.586 809.62 123.5 797.363 109.918 785.986C143.877 798.75 179.139 807.273 213.987 811.231C214.906 812.408 217.06 814.321 219.803 816.758L219.805 816.759C224.168 820.634 230.023 825.833 234.773 831.503C248.291 847.642 250.107 864.49 251.253 875.21C253.079 892.231 249.687 905.053 247.55 913.13C246.057 918.775 245.177 922.101 247.122 922.92C251.482 924.749 265.638 912.183 270.547 896.709C275.573 880.911 269.41 866.594 266.218 859.178L266.215 859.17C261.091 847.174 253.852 839.137 248.857 833.686C246.29 830.902 236.219 820.184 219.809 812.148C219.538 812.016 219.279 811.891 219.03 811.772C252.533 815.157 285.575 814.295 316.624 808.897C318.063 809.623 320.37 810.531 323.17 811.632C328.599 813.768 335.883 816.633 342.289 820.317C360.503 830.821 367.992 845.979 372.776 855.663L372.793 855.696C380.358 871.052 381.577 884.268 382.344 892.592C382.881 898.406 383.197 901.833 385.301 901.936C390.025 902.147 399 885.471 398.299 869.255C397.597 852.771 386.974 841.489 381.408 835.576L381.316 835.479C372.376 825.975 362.82 820.932 356.25 817.545C353.007 815.867 340.793 809.747 323.797 807.562C330.954 806.141 337.996 804.473 344.905 802.553C369.695 795.666 393.733 785.277 416.652 771.763C418.063 771.845 419.79 771.897 421.738 771.956H421.74C427.57 772.131 435.379 772.366 442.634 773.668C463.372 777.387 475.55 789.152 483.303 796.651C495.604 808.528 501.225 820.541 504.768 828.114C507.249 833.417 508.712 836.543 510.736 835.921C515.241 834.53 518.043 815.793 511.909 800.774C505.626 785.416 491.702 778.377 484.505 774.739C472.872 768.827 462.188 767.307 454.853 766.318C451.463 765.868 439.335 764.404 424.052 767.266C451.594 750.032 477.427 728.243 500.892 702.571C502.499 702.36 504.903 701.822 507.81 701.171L507.814 701.17C513.505 699.896 521.123 698.191 528.469 697.656C549.497 696.166 564.198 704.536 573.566 709.879C588.44 718.362 596.856 728.631 602.153 735.096C605.854 739.612 608.034 742.272 609.83 741.168C613.884 738.7 611.967 719.863 602.295 706.831C592.496 693.582 577.375 690.176 569.468 688.395L569.31 688.36C556.595 685.498 545.831 686.68 538.492 687.55C534.793 687.97 520.753 689.803 505.028 697.979C525.701 674.679 544.46 648.323 560.839 619.386C562.021 618.72 563.417 617.889 564.978 616.959C569.993 613.973 576.714 609.971 583.537 607.171C603.04 599.2 619.63 602.579 630.198 604.732L630.199 604.732C646.97 608.16 658.167 615.287 665.216 619.774C670.138 622.908 673.038 624.754 674.402 623.154C677.486 619.543 669.793 602.244 656.548 592.879C643.041 583.292 627.513 584.819 619.488 585.609L619.457 585.612C606.479 586.849 596.637 591.315 589.914 594.43C586.933 595.806 576.597 600.762 565.683 610.625C573.58 595.996 580.879 580.743 587.521 564.922C595.026 547.047 601.697 528.442 607.45 509.192C608.666 508.205 610.232 506.791 612.061 505.139L612.063 505.138C616.395 501.227 622.206 495.981 628.358 491.899C645.914 480.242 662.835 480.293 673.632 480.33C690.744 480.399 703.121 485.19 710.915 488.206C716.363 490.315 719.572 491.557 720.594 489.714C722.893 485.59 711.97 470.14 697.114 463.534C682.055 456.839 667.226 461.302 659.474 463.634L659.328 463.678C646.858 467.468 638.062 473.768 632.091 478.148C629.272 480.228 619.053 487.894 609.78 501.183C618.424 470.638 624.771 438.524 628.5 405.16C629.55 404.597 631.61 402.083 634.371 398.715C638.068 394.204 643.021 388.161 648.483 383.222C664.084 369.091 680.804 366.614 691.474 365.033L691.531 365.024C708.466 362.543 721.423 365.442 729.581 367.267C735.275 368.541 738.631 369.292 739.371 367.325C741.04 362.894 727.925 349.233 712.266 344.926C696.302 340.532 682.256 347.21 674.953 350.682L674.904 350.706C663.131 356.311 655.399 363.851 650.126 369.061C647.436 371.725 637.129 382.225 629.756 398.93C629.458 399.599 629.2 400.201 628.977 400.741C632.418 367.809 633.311 333.681 631.349 298.66C632.03 297.372 632.822 295.749 633.72 293.908L633.723 293.903C636.28 288.664 639.696 281.663 643.855 275.61C655.781 258.254 671.503 252.002 681.515 248.02L681.561 248.002C697.444 241.684 710.708 241.513 719.072 241.405C724.927 241.33 728.381 241.285 728.65 239.184C729.232 234.488 713.315 224.236 697.097 223.649C680.571 223.046 668.437 232.785 662.124 237.851L662.078 237.889C651.91 246.042 646.131 255.161 642.206 261.464C640.456 264.271 634.429 274.211 630.711 288.637C628.288 254.635 623.172 219.826 615.088 184.486C615.817 183.061 616.734 180.589 617.865 177.539C619.893 172.074 622.607 164.757 626.156 158.3C636.305 139.846 651.349 132.054 660.911 127.108C676.12 119.23 689.322 117.744 697.633 116.808C703.432 116.156 706.85 115.771 706.907 113.67C707.017 108.928 690.178 100.319 673.964 101.322C657.541 102.366 646.465 113.187 640.673 118.844L640.555 118.96C631.238 128.094 626.368 137.754 623.118 144.385C621.445 147.725 615.327 160.587 613.637 178.271C609.514 160.966 604.679 143.538 599.098 126.019C596.865 118.527 594.631 108.063 594.638 95.4883C594.65 88.1249 595.426 81.4071 596.572 75.4709C597.542 72.6513 598.638 69.781 599.885 67.0429C608.593 47.8868 622.964 38.9811 632.147 33.2905L632.172 33.2752C646.726 24.278 659.76 21.794 667.971 20.2292C673.709 19.1355 677.092 18.4908 676.992 16.3857C676.744 11.6491 659.302 4.33219 643.213 6.59511C626.898 8.85807 616.676 20.502 611.322 26.6005L611.215 26.7222C602.635 36.5392 598.519 46.5348 595.772 53.3889C594.397 56.8431 589.303 70.0129 588.923 87.6586C588.743 90.1807 588.642 92.7904 588.638 95.4818V95.485C588.631 108.787 590.996 119.85 593.355 127.758L593.363 127.785L593.372 127.811C594.383 130.986 595.37 134.158 596.332 137.326C586.735 122.569 575.481 114.236 572.487 112.1C566.56 107.822 557.85 101.678 545.439 98.1303L545.322 98.097C537.632 95.9146 522.878 91.7275 507.936 98.8102C493.202 105.782 482.317 121.582 484.597 125.689C485.616 127.528 488.805 126.205 494.217 123.961C501.958 120.752 514.247 115.656 531.242 115.223L531.328 115.22C542.047 114.948 558.824 114.521 576.201 125.85C582.296 129.834 588.049 134.982 592.344 138.824C594.927 141.136 596.983 142.975 598.267 143.804C606.689 172.487 613.108 200.889 617.67 228.865C609.166 212.985 598.275 203.548 595.422 201.134C589.823 196.428 581.598 189.623 569.515 185.153L569.383 185.105C561.864 182.339 547.5 177.055 532.05 182.976C516.839 188.805 504.783 203.729 506.746 207.996C507.62 209.905 510.902 208.829 516.472 207.003C524.436 204.391 537.078 200.246 554.046 201.105L554.084 201.107C564.793 201.652 581.562 202.506 598.061 215.146C603.845 219.575 609.204 225.158 613.198 229.318C615.513 231.729 617.369 233.663 618.583 234.616C624.149 270.689 626.633 306.036 626.352 340.344C619.691 326.379 611.367 317.594 609.02 315.171C603.934 309.925 596.435 302.348 584.847 296.703L584.76 296.661C577.557 293.156 563.781 286.452 547.774 290.813C532.045 295.098 518.578 308.764 520.101 313.219C520.785 315.2 524.153 314.455 529.87 313.189C538.055 311.376 551.055 308.498 567.883 311.032L567.993 311.049C578.585 312.664 595.152 315.19 610.257 329.38C615.581 334.37 620.365 340.457 623.929 344.991C624.772 346.063 625.547 347.048 626.244 347.912C625.58 380.918 622.355 412.933 616.854 443.677C613.678 427.732 607.255 416.681 605.454 413.692C601.722 407.433 596.169 398.312 586.192 390.153C580.039 385.091 568.129 375.306 551.482 375.87C535.192 376.429 518.947 386.616 519.416 391.286C519.616 393.368 523.061 393.42 528.912 393.509C537.289 393.636 550.598 393.838 566.378 400.177L566.406 400.188C576.342 404.196 591.926 410.481 603.405 427.781C607.422 433.852 610.658 440.861 613.073 446.093L613.074 446.096C613.992 448.084 614.791 449.815 615.47 451.141C608.971 484.96 599.71 517.192 588.077 547.455C587.384 530.963 582.618 518.882 581.271 515.61C578.501 508.849 574.36 499.015 565.719 489.452L565.672 489.4C560.319 483.479 550.014 472.082 533.527 470.183C517.339 468.296 499.758 475.946 499.511 480.626C499.399 482.73 502.812 483.298 508.603 484.263C516.873 485.641 529.992 487.827 544.626 496.443C553.875 501.869 568.37 510.394 577.119 529.258C580.199 535.867 582.36 543.29 583.97 548.824C584.555 550.831 585.066 552.589 585.523 553.97C584.367 556.865 583.189 559.742 581.989 562.599C568.38 595.011 552.012 624.967 533.396 651.976C535.532 636.522 533.356 624.531 532.709 621.197C531.331 614.015 529.212 603.574 522.608 592.508L522.538 592.39C518.423 585.499 510.577 572.36 494.825 567.261C479.324 562.231 460.573 566.294 459.424 570.847C458.903 572.88 462.132 574.104 467.613 576.182C475.45 579.152 487.889 583.867 500.558 595.186C508.552 602.326 521.086 613.538 525.977 633.752C527.697 640.824 528.36 648.513 528.856 654.255C528.973 655.615 529.081 656.866 529.191 657.974C509.58 685.472 487.602 709.775 463.827 730.341C464.048 729.959 464.283 729.545 464.532 729.095C473.332 713.244 475.346 698.864 475.816 695.159C476.719 687.896 477.975 677.313 475.143 664.721L475.109 664.571C473.349 656.769 469.981 641.843 456.611 632.091C443.444 622.486 424.374 620.495 421.844 624.461C420.717 626.235 423.404 628.403 427.963 632.081C434.486 637.344 444.844 645.701 453.348 660.423L453.35 660.426C458.72 669.712 467.137 684.267 465.501 704.999C464.922 712.248 463.153 719.758 461.833 725.362L461.833 725.364C460.957 729.083 460.279 731.964 460.276 733.373C433.833 755.667 405.233 773.372 375.243 785.759C386.043 773.432 390.94 761.476 392.216 758.204C394.909 751.408 398.735 741.448 399.093 728.577L399.094 728.517C399.327 720.528 399.776 705.155 389.188 692.365C378.811 679.812 360.828 673.158 357.402 676.37C355.866 677.82 357.94 680.595 361.458 685.303C366.475 692.018 374.43 702.665 379.041 719.004L379.051 719.041C381.961 729.369 386.516 745.541 379.801 765.194C377.45 772.068 373.888 778.899 371.226 784.004L371.223 784.011C370.393 785.602 369.652 787.025 369.061 788.229C360.574 791.507 351.981 794.36 343.299 796.772C322.492 802.553 300.41 806.015 277.61 807.256C290.258 799.677 297.911 791.185 300.054 788.727C304.878 783.234 311.845 775.136 316.543 763.155L316.562 763.105C319.49 755.657 325.107 741.366 319.495 725.733C313.963 710.408 299.283 698.05 294.968 699.936C293.037 700.78 294.05 704.09 295.768 709.703C298.221 717.718 302.112 730.429 300.924 747.368L300.919 747.434C300.16 758.132 298.973 774.878 286.007 791.076C281.468 796.767 275.793 802.004 271.558 805.912C270.916 806.505 270.308 807.066 269.741 807.595C237.789 808.614 204.569 805.349 171.583 798.061C171.674 798.05 171.766 798.039 171.86 798.028C189.869 795.879 202.708 789.105 205.997 787.31C212.4 783.807 221.739 778.625 230.272 768.978L230.328 768.914C235.627 762.924 245.795 751.431 245.891 734.834C245.959 718.55 236.438 701.916 231.714 702.197C229.625 702.315 229.441 705.755 229.128 711.598C228.679 719.968 227.967 733.267 221.015 748.793L220.956 748.925C216.558 758.693 209.688 773.953 191.994 784.697C185.769 788.481 178.635 791.451 173.311 793.666C170.117 794.995 167.576 796.053 166.272 796.853C138.59 790.369 111.129 781.055 84.7782 769.067C79.0068 766.441 73.2904 763.688 67.6383 760.809C84.6775 762.323 97.8115 758.9 101.268 757.936C108.323 755.981 118.572 753.065 129.107 745.622L129.266 745.509C135.799 740.862 148.247 732.006 152.073 715.95C155.89 700.1 150.4 681.728 145.75 680.919C143.689 680.566 142.72 683.879 141.077 689.501C138.725 697.548 134.992 710.323 124.694 723.842L124.684 723.855C118.183 732.381 107.994 745.742 88.2429 752.199C81.3258 754.467 73.7121 755.724 68.0265 756.663C65.499 757.08 63.3525 757.435 61.8177 757.787C42.2604 747.442 23.5239 735.575 6 722.258V729.759C6.36611 730.031 6.7327 730.302 7.09979 730.572C7.49052 732.139 8.28553 734.445 9.24598 737.231C11.1493 742.752 13.7024 750.158 15.0461 757.43C18.8956 778.139 12.1987 793.693 7.93301 803.595C7.30845 805.046 6.66255 806.445 6 807.793V837.841Z" stroke="#5F8000" stroke-width="12"/>
<path d="M6 601.033V624.689C6.57645 624.219 7.1474 623.727 7.71184 623.212C19.744 612.219 25.4991 593.919 22.127 590.668C20.6092 589.216 17.9441 591.419 13.4231 595.155C11.3584 596.862 8.90642 598.888 6 601.033Z" stroke="#5F8000" stroke-width="12"/>
<path d="M6 695.265V704.519C8.64153 704.738 10.6004 704.781 11.6764 704.797C18.9932 704.902 29.6446 704.957 41.8382 700.743L41.8769 700.73C49.4185 698.134 63.9487 693.133 72.2034 678.686C80.2742 664.536 80.1222 645.361 75.8965 643.291C74.0191 642.377 72.169 645.28 69.0287 650.208C64.5273 657.272 57.3747 668.495 43.6905 678.6C35.8251 684.427 23.8568 693.269 6 695.265Z" stroke="#5F8000" stroke-width="12"/>
</g>
</svg>
